<svg version="1" xmlns="http://www.w3.org/2000/svg" width="933.333" height="933.333" viewBox="0 0 700.000000 700.000000"><path d="M327.8.4c-.1.2-4.1.6-8.8 1-8.7.7-10.5.9-22.5 2.7-11.6 1.8-12.3 1.9-19.2 3.5-15.4 3.4-20.3 4.7-31.3 8.1-29.7 9.1-61.8 24.3-88.1 41.8C90.7 102.2 41.8 166.2 17 242c-2.8 8.7-7.5 25.6-8.5 31.1-.3 1.3-1.2 5.8-2 9.9-.8 4.1-1.7 8.9-1.9 10.5-.3 1.7-.7 4.6-1.1 6.6-.6 4-1 7.5-2.2 19.9-1.5 16.2-.8 59.2 1.2 71.1.2 1.3.6 4.6.9 7.4.9 7.8 2.3 15.6 5.1 28.5 3.1 14.2 10.9 39.1 17.4 55.5 6.4 15.8 20.9 43.6 30 57.5 21.3 32.3 46.9 60.3 77.1 84.5 9.2 7.4 37 26.5 38.6 26.5.4 0 1.5.6 2.3 1.4 3.2 2.8 31.4 16.6 44.8 21.9 17.5 7 41 14.4 54.6 17.3 9.2 1.9 21.1 4.1 27.2 4.9 2.2.2 5.6.7 7.5 1 18.7 2.6 69.7 2.7 83.8 0 1.6-.3 10.4-1.5 14.7-2 17.4-2.2 49.6-11.2 72.5-20.2 50.1-19.7 99.8-54.7 133.2-93.7 3.4-3.9 6.4-7.3 6.8-7.6.4-.3 4.4-5.5 9-11.5 15.1-19.9 27.7-40.5 38.3-62.8 2.6-5.3 4.7-9.9 4.7-10.2 0-.2 1.1-2.8 2.4-5.7 5.7-12.7 15.1-42.1 18.2-57.3 1.7-8.1 5.4-30.1 5.9-35 .4-3.3.9-7.1 1.1-8.5.9-4.6 1.1-52.4.4-60.5-1.2-12.8-2.1-20.2-2.5-22.7-.3-1.3-.8-4.3-1.1-6.8-.3-2.5-.9-6.1-1.4-8-.5-1.9-1.2-5.1-1.5-7-.3-1.9-1.9-8.7-3.5-15-19.3-76.9-67.3-147.9-132.2-195.3-40.6-29.6-87.5-50.6-134.3-60.2-4.4-.9-8.9-1.9-10-2.1-1.1-.2-3.8-.6-6-.9-2.2-.3-5.1-.7-6.5-1-1.3-.2-5.2-.7-8.6-1.1-3.3-.3-7.4-.8-9-1-3.3-.5-54-1.4-54.6-1zm1.2 170.7v128.3l-90.7-90.7-90.7-90.7 2.1-1.9c7.8-7.3 33.5-25.7 44.9-32.2C218.9 70.1 247.3 58.4 272 52c16.9-4.4 39.3-8.2 52.3-8.9l4.7-.2v128.2zm59.5-126.6c41.6 5.4 82.4 19.3 116.6 39.6 4.5 2.7 8.6 4.9 9.1 4.9.4 0 .8.3.8.8 0 .4 1.7 1.6 3.7 2.7s4.1 2.4 4.7 3c.6.5 3.4 2.5 6.1 4.4 4.9 3.4 18.7 14.3 21.4 16.9 1.2 1.1-12.9 15.6-89.3 91.9L371 299.4V42.8l7.3.7c3.9.3 8.6.8 10.2 1zM209 238.5l90.4 90.5H42.9l.6-5.3c1.5-13.8 2.1-18.5 2.9-22.4.3-1.1.8-4.3 1.1-7 .4-2.6 1.8-9.3 3.2-14.8 9.3-38.1 23.1-69.9 43.9-101 7.2-10.8 22.3-30.5 23.4-30.5.3 0 41.2 40.7 91 90.5zm375.7-87.8c3.7 4.2 16.4 21 21 27.8 9.8 14.6 21.9 37.1 28.6 53.5 3.4 8.3 9.5 25.1 10.2 28 .2.8 1.7 6.7 3.4 13 4.1 15.7 7 32.1 8.6 49.2l.7 6.8H400.5l90.5-90.5c49.8-49.8 90.7-90.5 90.9-90.5.2 0 1.5 1.2 2.8 2.7zM328.8 432.2l-.3 61.3H203.7c-68.7 0-125.2-.2-125.6-.5-.7-.5-9.6-19.2-12.6-26.5-10.8-26.1-18.9-58.9-22-89.8L43 371h286l-.2 61.2zm327.8-54c-.3 4-.8 8.2-1 9.3-.4 2.1-1.5 10-2.1 14.5-2.1 16.1-11.4 47.5-20 68-2.8 6.7-10.3 22.1-11.2 23-.5.6-248.3.8-250 .2-1-.3-1.3-13.5-1.3-61.3V371h286.1l-.5 7.2zM329 596.3v60.9l-6.7-.7c-12.4-1.2-24.6-3-34.3-5.2-3.6-.7-7.6-1.6-8.8-1.9-5.3-1.1-13.3-3.4-23.9-6.8-48.1-15.7-91.1-42.5-126.4-79.1-8.4-8.7-23.8-26.4-23.9-27.5 0-.3 50.4-.6 112-.6h112v60.9zM595 536c0 1.8-15.4 19.4-27.5 31.5-14.5 14.5-26.8 25-41.5 35.2-9.8 6.8-23.7 15.3-25 15.3-.4 0-1 .4-1.2.8-.4 1.1-25.7 13.4-35.1 17.1-16.6 6.6-42.3 14-57.7 16.7-2.5.4-4.7.8-5 .9-.3.1-3 .5-6 .9-3 .5-6.4 1-7.5 1.2-1.1.2-5.5.6-9.7 1l-7.8.6V535.4h112c61.6 0 112 .3 112 .6z"/></svg>