<?xml version="1.0" encoding="UTF-8" standalone="no"?>
<svg
   xmlns:dc="http://purl.org/dc/elements/1.1/"
   xmlns:cc="http://creativecommons.org/ns#"
   xmlns:rdf="http://www.w3.org/1999/02/22-rdf-syntax-ns#"
   xmlns:svg="http://www.w3.org/2000/svg"
   xmlns="http://www.w3.org/2000/svg"
   xmlns:sodipodi="http://sodipodi.sourceforge.net/DTD/sodipodi-0.dtd"
   xmlns:inkscape="http://www.inkscape.org/namespaces/inkscape"
   viewBox="16 48 480 416"
   version="1.1"
   id="svg6"
   sodipodi:docname="briefcase.svg"
   inkscape:version="0.92.5 (2060ec1f9f, 2020-04-08)">
  <metadata
     id="metadata12">
    <rdf:RDF>
      <cc:Work
         rdf:about="">
        <dc:format>image/svg+xml</dc:format>
        <dc:type
           rdf:resource="http://purl.org/dc/dcmitype/StillImage" />
        <dc:title></dc:title>
      </cc:Work>
    </rdf:RDF>
  </metadata>
  <defs
     id="defs10" />
  <sodipodi:namedview
     pagecolor="#ffffff"
     bordercolor="#666666"
     borderopacity="1"
     objecttolerance="10"
     gridtolerance="10"
     guidetolerance="10"
     inkscape:pageopacity="0"
     inkscape:pageshadow="2"
     inkscape:window-width="997"
     inkscape:window-height="925"
     id="namedview8"
     showgrid="false"
     inkscape:zoom="0.56730769"
     inkscape:cx="247.05085"
     inkscape:cy="208"
     inkscape:window-x="0"
     inkscape:window-y="27"
     inkscape:window-maximized="0"
     inkscape:current-layer="svg6" />
  <path
     d="M336 80H176a16 16 0 00-16 16v16h192V96a16 16 0 00-16-16z"
     fill="none"
     id="path2"
     style="fill:none;fill-opacity:1" />
  <path
     d="M496 176a64.07 64.07 0 00-64-64h-48V96a48.05 48.05 0 00-48-48H176a48.05 48.05 0 00-48 48v16H80a64.07 64.07 0 00-64 64v48h480zm-144-64H160V96a16 16 0 0116-16h160a16 16 0 0116 16zM336 264a24 24 0 01-24 24H200a24 24 0 01-24-24v-4a4 4 0 00-4-4H16v144a64 64 0 0064 64h352a64 64 0 0064-64V256H340a4 4 0 00-4 4z"
     id="path4"
     style="fill:#e6e6e6;fill-opacity:1" />
</svg>
