<?xml version="1.0" encoding="UTF-8" standalone="no"?>
<svg
   xmlns:dc="http://purl.org/dc/elements/1.1/"
   xmlns:cc="http://creativecommons.org/ns#"
   xmlns:rdf="http://www.w3.org/1999/02/22-rdf-syntax-ns#"
   xmlns:svg="http://www.w3.org/2000/svg"
   xmlns="http://www.w3.org/2000/svg"
   xmlns:sodipodi="http://sodipodi.sourceforge.net/DTD/sodipodi-0.dtd"
   xmlns:inkscape="http://www.inkscape.org/namespaces/inkscape"
   class="ionicon"
   viewBox="32 32 448 448.02"
   version="1.1"
   id="svg6"
   sodipodi:docname="calendar-light-mode.svg"
   inkscape:version="0.92.5 (2060ec1f9f, 2020-04-08)">
  <metadata
     id="metadata12">
    <rdf:RDF>
      <cc:Work
         rdf:about="">
        <dc:format>image/svg+xml</dc:format>
        <dc:type
           rdf:resource="http://purl.org/dc/dcmitype/StillImage" />
        <dc:title>Calendar</dc:title>
      </cc:Work>
    </rdf:RDF>
  </metadata>
  <defs
     id="defs10" />
  <sodipodi:namedview
     pagecolor="#ffffff"
     bordercolor="#666666"
     borderopacity="1"
     objecttolerance="10"
     gridtolerance="10"
     guidetolerance="10"
     inkscape:pageopacity="0"
     inkscape:pageshadow="2"
     inkscape:window-width="992"
     inkscape:window-height="842"
     id="namedview8"
     showgrid="false"
     inkscape:zoom="0.52676221"
     inkscape:cx="231.59356"
     inkscape:cy="224.00999"
     inkscape:window-x="0"
     inkscape:window-y="27"
     inkscape:window-maximized="0"
     inkscape:current-layer="svg6" />
  <title
     id="title2">Calendar</title>
  <path
     d="M480 128a64 64 0 00-64-64h-16V48.45c0-8.61-6.62-16-15.23-16.43A16 16 0 00368 48v16H144V48.45c0-8.61-6.62-16-15.23-16.43A16 16 0 00112 48v16H96a64 64 0 00-64 64v12a4 4 0 004 4h440a4 4 0 004-4zM32 416a64 64 0 0064 64h320a64 64 0 0064-64V179a3 3 0 00-3-3H35a3 3 0 00-3 3zm344-208a24 24 0 11-24 24 24 24 0 0124-24zm0 80a24 24 0 11-24 24 24 24 0 0124-24zm-80-80a24 24 0 11-24 24 24 24 0 0124-24zm0 80a24 24 0 11-24 24 24 24 0 0124-24zm0 80a24 24 0 11-24 24 24 24 0 0124-24zm-80-80a24 24 0 11-24 24 24 24 0 0124-24zm0 80a24 24 0 11-24 24 24 24 0 0124-24zm-80-80a24 24 0 11-24 24 24 24 0 0124-24zm0 80a24 24 0 11-24 24 24 24 0 0124-24z"
     id="path4"
     style="fill:#262626;fill-opacity:1" />
</svg>
