<?xml version="1.0" encoding="UTF-8" standalone="no"?>
<svg
   xmlns:dc="http://purl.org/dc/elements/1.1/"
   xmlns:cc="http://creativecommons.org/ns#"
   xmlns:rdf="http://www.w3.org/1999/02/22-rdf-syntax-ns#"
   xmlns:svg="http://www.w3.org/2000/svg"
   xmlns="http://www.w3.org/2000/svg"
   xmlns:sodipodi="http://sodipodi.sourceforge.net/DTD/sodipodi-0.dtd"
   xmlns:inkscape="http://www.inkscape.org/namespaces/inkscape"
   class="ionicon"
   viewBox="80 32 352 448"
   version="1.1"
   id="svg8"
   sodipodi:docname="document-text-light-mode.svg"
   inkscape:version="0.92.5 (2060ec1f9f, 2020-04-08)">
  <metadata
     id="metadata14">
    <rdf:RDF>
      <cc:Work
         rdf:about="">
        <dc:format>image/svg+xml</dc:format>
        <dc:type
           rdf:resource="http://purl.org/dc/dcmitype/StillImage" />
        <dc:title>Document Text</dc:title>
      </cc:Work>
    </rdf:RDF>
  </metadata>
  <defs
     id="defs12" />
  <sodipodi:namedview
     pagecolor="#ffffff"
     bordercolor="#666666"
     borderopacity="1"
     objecttolerance="10"
     gridtolerance="10"
     guidetolerance="10"
     inkscape:pageopacity="0"
     inkscape:pageshadow="2"
     inkscape:window-width="1023"
     inkscape:window-height="959"
     id="namedview10"
     showgrid="false"
     inkscape:zoom="0.52678571"
     inkscape:cx="183.59322"
     inkscape:cy="224"
     inkscape:window-x="190"
     inkscape:window-y="177"
     inkscape:window-maximized="0"
     inkscape:current-layer="svg8" />
  <title
     id="title2">Document Text</title>
  <path
     d="M428 224H288a48 48 0 01-48-48V36a4 4 0 00-4-4h-92a64 64 0 00-64 64v320a64 64 0 0064 64h224a64 64 0 0064-64V228a4 4 0 00-4-4zm-92 160H176a16 16 0 010-32h160a16 16 0 010 32zm0-80H176a16 16 0 010-32h160a16 16 0 010 32z"
     id="path4"
     style="fill:#262626;fill-opacity:1" />
  <path
     d="M419.22 188.59L275.41 44.78a2 2 0 00-3.41 1.41V176a16 16 0 0016 16h129.81a2 2 0 001.41-3.41z"
     id="path6"
     style="fill:#262626;fill-opacity:1" />
</svg>
