<svg xmlns="http://www.w3.org/2000/svg" viewBox="0 0 500 500"><g id="Layer_2" data-name="Layer 2"><g id="Layer_1-2" data-name="Layer 1"><path d="M250,30a220.06,220.06,0,0,1,85.62,422.72A220.06,220.06,0,0,1,164.38,47.28,218.46,218.46,0,0,1,250,30m0-30C111.93,0,0,111.93,0,250S111.93,500,250,500,500,388.07,500,250,388.07,0,250,0Z"/><polygon points="265 10 235 10 235 213.78 90.9 69.69 69.69 90.9 213.78 235 10 235 10 265 235 265 235 352.5 44 352.5 44 382.5 235 382.5 235 490 265 490 265 382.5 455 382.5 455 352.5 265 352.5 265 265 490 265 490 235 286.22 235 430.31 90.9 409.1 69.69 265 213.78 265 10 265 10"/></g></g></svg>