<?xml version="1.0" encoding="UTF-8" standalone="no"?>
<svg
   xmlns:dc="http://purl.org/dc/elements/1.1/"
   xmlns:cc="http://creativecommons.org/ns#"
   xmlns:rdf="http://www.w3.org/1999/02/22-rdf-syntax-ns#"
   xmlns:svg="http://www.w3.org/2000/svg"
   xmlns="http://www.w3.org/2000/svg"
   xmlns:sodipodi="http://sodipodi.sourceforge.net/DTD/sodipodi-0.dtd"
   xmlns:inkscape="http://www.inkscape.org/namespaces/inkscape"
   viewBox="80 16 352 480"
   version="1.1"
   id="svg4"
   sodipodi:docname="id-card.svg"
   enable-background="new"
   inkscape:version="0.92.5 (2060ec1f9f, 2020-04-08)">
  <metadata
     id="metadata10">
    <rdf:RDF>
      <cc:Work
         rdf:about="">
        <dc:format>image/svg+xml</dc:format>
        <dc:type
           rdf:resource="http://purl.org/dc/dcmitype/StillImage" />
      </cc:Work>
    </rdf:RDF>
  </metadata>
  <defs
     id="defs8" />
  <sodipodi:namedview
     pagecolor="#ffffff"
     bordercolor="#666666"
     borderopacity="1"
     objecttolerance="10"
     gridtolerance="10"
     guidetolerance="10"
     inkscape:pageopacity="0"
     inkscape:pageshadow="2"
     inkscape:window-width="785"
     inkscape:window-height="480"
     id="namedview6"
     showgrid="false"
     inkscape:zoom="0.49166667"
     inkscape:cx="184.13559"
     inkscape:cy="240"
     inkscape:window-x="0"
     inkscape:window-y="27"
     inkscape:window-maximized="0"
     inkscape:current-layer="svg4" />
  <path
     d="M 368,16 H 144 A 64.07,64.07 0 0 0 80,80 v 352 a 64.07,64.07 0 0 0 64,64 h 224 a 64.07,64.07 0 0 0 64,-64 V 80 A 64.07,64.07 0 0 0 368,16 Z m -34.52,268.51 c 7.57,8.17 11.27,19.16 10.39,30.94 C 342.14,338.91 324.25,358 304,358 c -20.25,0 -38.17,-19.09 -39.88,-42.55 -0.86,-11.9 2.81,-22.91 10.34,-31 C 281.99,276.36 292.4,272 304,272 a 39.65,39.65 0 0 1 29.48,12.51 z M 192,80 a 16,16 0 0 1 16,-16 h 96 a 16,16 0 0 1 0,32 H 208 A 16,16 0 0 1 192,80 Z M 381,443.83 A 12.05,12.05 0 0 1 371.69,448 H 236.31 a 12.05,12.05 0 0 1 -9.31,-4.17 13,13 0 0 1 -2.76,-10.92 c 3.25,-17.56 13.38,-32.31 29.3,-42.66 C 267.68,381.06 285.6,376 304,376 c 18.4,0 36.32,5.06 50.46,14.25 15.92,10.35 26.05,25.1 29.3,42.66 A 13,13 0 0 1 381,443.83 Z"
     id="path2"
     inkscape:connector-curvature="0"
     style="fill:#262626;fill-opacity:1" />
</svg>
