<?xml version="1.0" encoding="UTF-8" standalone="no"?>
<svg
   xmlns:dc="http://purl.org/dc/elements/1.1/"
   xmlns:cc="http://creativecommons.org/ns#"
   xmlns:rdf="http://www.w3.org/1999/02/22-rdf-syntax-ns#"
   xmlns:svg="http://www.w3.org/2000/svg"
   xmlns="http://www.w3.org/2000/svg"
   xmlns:sodipodi="http://sodipodi.sourceforge.net/DTD/sodipodi-0.dtd"
   xmlns:inkscape="http://www.inkscape.org/namespaces/inkscape"
   viewBox="80 16 352 480"
   version="1.1"
   id="svg4"
   sodipodi:docname="id-card-light.svg"
   inkscape:version="0.92.5 (2060ec1f9f, 2020-04-08)">
  <metadata
     id="metadata10">
    <rdf:RDF>
      <cc:Work
         rdf:about="">
        <dc:format>image/svg+xml</dc:format>
        <dc:type
           rdf:resource="http://purl.org/dc/dcmitype/StillImage" />
        <dc:title />
      </cc:Work>
    </rdf:RDF>
  </metadata>
  <defs
     id="defs8" />
  <sodipodi:namedview
     pagecolor="#ffffff"
     bordercolor="#666666"
     borderopacity="1"
     objecttolerance="10"
     gridtolerance="10"
     guidetolerance="10"
     inkscape:pageopacity="0"
     inkscape:pageshadow="2"
     inkscape:window-width="2560"
     inkscape:window-height="1322"
     id="namedview6"
     showgrid="false"
     inkscape:zoom="0.49166667"
     inkscape:cx="-177.89831"
     inkscape:cy="231.86441"
     inkscape:window-x="0"
     inkscape:window-y="27"
     inkscape:window-maximized="1"
     inkscape:current-layer="svg4" />
  <path
     d="M368 16H144a64.07 64.07 0 00-64 64v352a64.07 64.07 0 0064 64h224a64.07 64.07 0 0064-64V80a64.07 64.07 0 00-64-64zm-34.52 268.51c7.57 8.17 11.27 19.16 10.39 30.94C342.14 338.91 324.25 358 304 358s-38.17-19.09-39.88-42.55c-.86-11.9 2.81-22.91 10.34-31S292.4 272 304 272a39.65 39.65 0 0129.48 12.51zM192 80a16 16 0 0116-16h96a16 16 0 010 32h-96a16 16 0 01-16-16zm189 363.83a12.05 12.05 0 01-9.31 4.17H236.31a12.05 12.05 0 01-9.31-4.17 13 13 0 01-2.76-10.92c3.25-17.56 13.38-32.31 29.3-42.66C267.68 381.06 285.6 376 304 376s36.32 5.06 50.46 14.25c15.92 10.35 26.05 25.1 29.3 42.66a13 13 0 01-2.76 10.92z"
     id="path2"
     style="fill:#e6e6e6;fill-opacity:1" />
</svg>
